0
SECTION
2
HEADER
9
$INSUNITS
70
4
9
$ACADVER
1
AC1014
9
$HANDSEED
5
FFFF
0
ENDSEC
0
SECTION
2
TABLES
0
TABLE
2
VPORT
5
8
100
AcDbSymbolTable
0
ENDTAB
0
TABLE
2
LTYPE
5
5
100
AcDbSymbolTable
0
LTYPE
5
14
100
AcDbSymbolTableRecord
100
AcDbLinetypeTableRecord
2
BYBLOCK
70
0
0
LTYPE
5
15
100
AcDbSymbolTableRecord
100
AcDbLinetypeTableRecord
2
BYLAYER
70
0
0
ENDTAB
0
TABLE
2
LAYER
5
2
100
AcDbSymbolTable
70
2
0
LAYER
5
50
100
AcDbSymbolTableRecord
100
AcDbLayerTableRecord
2
0
70
0
6
CONTINUOUS
0
ENDTAB
0
TABLE
2
STYLE
5
3
100
AcDbSymbolTable
70
1
0
STYLE
5
11
100
AcDbSymbolTableRecord
100
AcDbTextStyleTableRecord
2
STANDARD
70
0
0
ENDTAB
0
TABLE
2
VIEW
5
6
100
AcDbSymbolTable
70
0
0
ENDTAB
0
TABLE
2
UCS
5
7
100
AcDbSymbolTable
70
0
0
ENDTAB
0
TABLE
2
APPID
5
9
100
AcDbSymbolTable
70
2
0
APPID
5
12
100
AcDbSymbolTableRecord
100
AcDbRegAppTableRecord
2
ACAD
70
0
0
ENDTAB
0
TABLE
2
DIMSTYLE
5
A
100
AcDbSymbolTable
70
1
0
ENDTAB
0
TABLE
2
BLOCK_RECORD
5
1
100
AcDbSymbolTable
70
1
0
BLOCK_RECORD
5
1F
100
AcDbSymbolTableRecord
100
AcDbBlockTableRecord
2
*MODEL_SPACE
0
BLOCK_RECORD
5
1B
100
AcDbSymbolTableRecord
100
AcDbBlockTableRecord
2
*PAPER_SPACE
0
ENDTAB
0
ENDSEC
0
SECTION
2
BLOCKS
0
BLOCK
5
20
100
AcDbEntity
100
AcDbBlockBegin
2
*MODEL_SPACE
0
ENDBLK
5
21
100
AcDbEntity
100
AcDbBlockEnd
0
BLOCK
5
1C
100
AcDbEntity
100
AcDbBlockBegin
2
*PAPER_SPACE
0
ENDBLK
5
1D
100
AcDbEntity
100
AcDbBlockEnd
0
ENDSEC
0
SECTION
2
ENTITIES
0
LWPOLYLINE
5
100
100
AcDbEntity
8
OUTER_PROFILES
100
AcDbPolyline
90
78
70
1
43
0.0
10
13.509925904920262
20
-82.75335490998134
42
-0.41421356237310042
10
13.756439572800161
20
-85.571019015503609
10
2.1862626034095465
20
-99.359818995813285
42
-0.41421356237309365
10
-0.63140150211260959
20
-99.606332663693138
10
-23.558275150403034
20
-80.368401455438757
42
-0.41421356237310009
10
-23.804788818282944
20
-77.550737349916488
10
-20.590850771230038
20
-73.720515133163815
10
-31.941033330274038
20
-64.196581141042756
10
-34.848936086607509
20
-67.662084617530908
10
-31.742268851076922
20
-70.268887798497403
42
-0.31529878686411117
10
-31.148458824786399
20
-72.485016957856686
10
-36.054010491014054
20
-85.962909680743579
42
-0.41421356439825091
10
-38.617436023966867
20
-87.158254648658797
10
-43.673901488074776
20
-85.317851729128591
42
-0.087488663630817268
10
-45.177738821473994
20
-84.449610839455715
10
-59.531410067260524
20
-72.405450580891781
10
-64.816638966183817
20
-78.704141103540181
42
-0.41421356237309648
10
-71.860799230468018
20
-79.32042526776938
10
-148.73294098731853
20
-14.817039417244855
42
-0.41421356237309559
10
-149.34922515154773
20
-7.7728791529606545
10
-147.4208623215313
20
-5.4747458244065683
10
-144.51295968269432
20
-2.0092424079978977
10
-145.09589870694089
20
-1.5200984873404755
10
-130.08515742589168
20
39.721574231619115
10
-129.32418457425348
20
39.721574231619016
10
-129.32418457425388
20
47.245467652785607
42
-0.4142135623730992
10
-124.32418457425388
20
52.245467652785685
10
-21.264629601903422
20
52.245467652786708
42
-0.41421356237309453
10
-16.264629601903387
20
47.245467652786779
10
-16.264629601903138
20
38.721574231620423
10
-14.264629601903119
20
38.721574231620522
42
-0.087488663525917276
10
-12.095345076960387
20
38.339070841039742
10
2.9397368556147452
20
32.866748547829069
10
6.881140535193194
20
43.695666158426704
42
-0.41421356237309453
10
13.289704355751031
20
46.684028545727998
10
38.429301039636584
20
37.533963651336677
42
-0.41421356237309731
10
39.624645994557113
20
34.970538123113535
10
37.230504991277527
20
28.392689777612148
42
-0.41421356237309626
10
34.667079463054378
20
27.197344822691626
10
19.864101607813865
20
32.585188140500698
10
17.717645910726681
20
26.687849580893644
42
-0.3292444222876863
10
12.766622084695962
20
23.404333063326686
42
0.18744384008324799
10
4.5160980322500182
20
20.669704680016594
42
-0.1743967524970356
10
1.3309403991654083
20
19.523893421165955
10
-3.1158350977775662
20
19.523893421165834
10
-3.1158350977777971
20
15.00000000000002
10
11.700775945577879
20
15.000000000000052
10
11.700775945577886
20
20.000000000000036
42
-0.41421356237310086
10
13.700775945577925
20
22.000000000000032
10
43.629683918609516
20
21.999999999999993
42
-0.41421356237309631
10
45.629683918609544
20
20.000000000000004
10
45.629683918609544
20
1.9999999999999731
42
-0.41421356237309509
10
43.629683918609523
20
-2.886579864025407e-14
10
1.3877787807814437e-15
20
-1.609823385706477e-14
42
-0.19891236737965939
10
-1.4142135623731011
20
0.58578643762689175
10
-5.242640687118989
20
4.4142135623727734
42
0.19891236737965851
10
-6.6568542494920901
20
4.9999999999996492
10
-16.024621664638673
20
4.9999999999996501
42
0.1934325391708924
10
-17.408672638014082
20
4.4437461352667151
10
-17.456561515200402
20
4.397837339070132
42
-0.19891236737965948
10
-18.882823342353447
20
3.8420289629964
10
-70.799950996710066
20
4.9380062277042409
42
-0.40804489255429921
10
-73.73663471604354
20
7.9373379947154472
10
-73.73663471604344
20
20.523893421165127
10
-75.736634716043454
20
20.523893421165145
10
-75.736634716043426
20
17.287163228249781
42
-0.087488663525923563
10
-76.339708508184302
20
13.866961794993099
10
-87.305471698594886
20
-16.261224957747814
42
-0.087488663630817115
10
-89.041953477940609
20
-19.268899624546243
10
-91.122483541497445
20
-21.748378800193628
10
-89.590394655794768
20
-23.033954020204661
10
-88.947607045789283
20
-22.26790957735329
10
-81.499911488018228
20
-13.392091633338207
42
-0.40804490210060812
10
-77.322347870053861
20
-12.982134168522794
10
-26.154454853606399
20
-54.108445302944929
42
0.19343254739637195
10
-24.727189844149599
20
-54.541954503878557
10
-21.372237670401883
20
-54.248434224233002
42
-0.19891236711467647
10
-19.912350967399082
20
-54.708734733830362
0
CIRCLE
5
101
100
AcDbEntity
8
INTERIOR_PROFILES
100
AcDbCircle
10
-27.129790736762757
20
4.4999999999985896
30
0
40
1.0500000000000043
210
0
220
0
230
-1
0
CIRCLE
5
102
100
AcDbEntity
8
INTERIOR_PROFILES
100
AcDbCircle
10
75.808109561666924
20
-22.166104497130242
30
0
40
1.7499999999999951
210
0
220
0
230
-1
0
CIRCLE
5
103
100
AcDbEntity
8
INTERIOR_PROFILES
100
AcDbCircle
10
63.736634716043369
20
10.99999999999894
30
0
40
1.7500000000000051
210
0
220
0
230
-1
0
CIRCLE
5
104
100
AcDbEntity
8
INTERIOR_PROFILES
100
AcDbCircle
10
-42.129790736763645
20
18.499999999997698
30
0
40
1.5500000000000025
210
0
220
0
230
-1
0
CIRCLE
5
105
100
AcDbEntity
8
INTERIOR_PROFILES
100
AcDbCircle
10
10.378508716022772
20
-85.553205801219718
30
0
40
1.0500000000000052
210
0
220
0
230
-1
0
CIRCLE
5
106
100
AcDbEntity
8
INTERIOR_PROFILES
100
AcDbCircle
10
-27.129790736763553
20
17.49999999999859
30
0
40
1.0500000000000043
210
0
220
0
230
-1
0
CIRCLE
5
107
100
AcDbEntity
8
INTERIOR_PROFILES
100
AcDbCircle
10
37.505887380757827
20
-54.305484951710888
30
0
40
1.750000000000004
210
0
220
0
230
-1
0
CIRCLE
5
108
100
AcDbEntity
8
INTERIOR_PROFILES
100
AcDbCircle
10
-15.129790736763526
20
17.499999999999361
30
0
40
1.0500000000000065
210
0
220
0
230
-1
0
CIRCLE
5
109
100
AcDbEntity
8
INTERIOR_PROFILES
100
AcDbCircle
10
-42.129790736762736
20
3.4999999999976605
30
0
40
1.5500000000000025
210
0
220
0
230
-1
0
CIRCLE
5
110
100
AcDbEntity
8
INTERIOR_PROFILES
100
AcDbCircle
10
19.571042036229159
20
-77.839754488292627
30
0
40
1.0500000000000074
210
0
220
0
230
-1
0
CIRCLE
5
111
100
AcDbEntity
8
INTERIOR_PROFILES
100
AcDbCircle
10
-10.111184465983429
20
-84.470397735471181
30
0
40
1.5500000000000094
210
0
220
0
230
-1
0
CIRCLE
5
112
100
AcDbEntity
8
INTERIOR_PROFILES
100
AcDbCircle
10
2.0222697936851386
20
-75.594628037662844
30
0
40
1.0500000000000083
210
0
220
0
230
-1
0
CIRCLE
5
113
100
AcDbEntity
8
INTERIOR_PROFILES
100
AcDbCircle
10
-15.129790736762763
20
4.4999999999993268
30
0
40
1.0500000000000065
210
0
220
0
230
-1
0
CIRCLE
5
114
100
AcDbEntity
8
INTERIOR_PROFILES
100
AcDbCircle
10
11.214803113891545
20
-67.881176724735766
30
0
40
1.0500000000000074
210
0
220
0
230
-1
0
CIRCLE
5
115
100
AcDbEntity
8
INTERIOR_PROFILES
100
AcDbCircle
10
13.736634716043339
20
10.999999999999215
30
0
40
1.749999999999998
210
0
220
0
230
-1
0
CIRCLE
5
116
100
AcDbEntity
8
INTERIOR_PROFILES
100
AcDbCircle
10
-0.46937032482459173
20
-95.961064385729145
30
0
40
1.5500000000000071
210
0
220
0
230
-1
0
LWPOLYLINE
5
117
100
AcDbEntity
8
INTERIOR_PROFILES
100
AcDbPolyline
90
8
70
1
43
0.0
10
-109.34286804049174
20
1.1946360490525509
10
-97.519669868162566
20
4.1518508583346243
42
-0.60111452508831831
10
-96.928501253803461
20
3.4957827757888009
10
-98.39247766364835
20
-0.52644801443154021
42
-0.24913872215209046
10
-98.741017507317551
20
-0.84049914072374943
10
-110.56403586550135
20
-3.7972507808969533
42
-0.60110235633693465
10
-111.15518875455075
20
-3.1411798188137623
10
-109.69139215885116
20
0.88058780229775213
42
-0.249130538281745
0
LWPOLYLINE
5
118
100
AcDbEntity
8
INTERIOR_PROFILES
100
AcDbPolyline
90
8
70
1
43
0.0
10
-103.02513290564191
20
19.225500635482831
10
-104.4891093154868
20
15.203269845262469
42
-0.24913872215203434
10
-104.83764915915594
20
14.889218718970334
10
-116.66066751733985
20
11.932467078797046
42
-0.60110235633688591
10
-117.25182040638916
20
12.588538040880247
10
-115.78802381068957
20
16.610305661991799
42
-0.24913053828175749
10
-115.43949969233014
20
16.9243539087466
10
-103.61630152000103
20
19.88156871802871
42
-0.60111452508832885
0
LWPOLYLINE
5
119
100
AcDbEntity
8
INTERIOR_PROFILES
100
AcDbPolyline
90
8
70
1
43
0.0
10
-118.89746160443462
20
7.4238937374573251
10
-94.069512847585372
20
13.635114269320843
42
-0.60113048924296786
10
-93.478320886428904
20
12.979052413782552
10
-94.96723392300828
20
8.8882974662488028
42
-0.24911736691749437
10
-95.31573446947047
20
8.5742557823472723
10
-120.14368569102626
20
2.363028478758304
42
-0.60113056864739389
10
-120.73487776534991
20
3.0190903059854861
10
-119.24596226406402
20
7.109852025244666
42
-0.24911742886463692
0
LWPOLYLINE
5
120
100
AcDbEntity
8
INTERIOR_PROFILES
100
AcDbPolyline
90
4
70
1
43
0.0
10
-128.20868588916815
20
17.548337678691251
10
-123.51022278523857
20
15.838236962062972
42
-0.99999999999999989
10
-124.70729328687845
20
12.549312789312292
10
-129.40575639080794
20
14.259413505940536
42
-0.99999999999999989
0
LWPOLYLINE
5
121
100
AcDbEntity
8
INTERIOR_PROFILES
100
AcDbPolyline
90
4
70
1
43
0.0
10
-40.152212883339082
20
-76.755997119735227
10
-44.850675987268644
20
-75.045896403106937
42
-0.99999999999999989
10
-43.65360548562883
20
-71.75697223035624
10
-38.955142381699275
20
-73.46707294698453
42
-0.99999999999999989
0
CIRCLE
5
122
100
AcDbEntity
8
INTERIOR_PROFILES
100
AcDbCircle
10
132.98526971720972
20
1.5009770688513036
30
0
40
1.7500000000000095
210
0
220
0
230
-1
0
CIRCLE
5
123
100
AcDbEntity
8
INTERIOR_PROFILES
100
AcDbCircle
10
122.74978732219097
20
29.622733826391901
30
0
40
1.7500000000000104
210
0
220
0
230
-1
0
CIRCLE
5
124
100
AcDbEntity
8
INTERIOR_PROFILES
100
AcDbCircle
10
28.72348210989621
20
29.622733826393084
30
0
40
1.7500000000000004
210
0
220
0
230
-1
0
CIRCLE
5
125
100
AcDbEntity
8
INTERIOR_PROFILES
100
AcDbCircle
10
75.736634716043568
20
29.622733826392444
30
0
40
1.7500000000000104
210
0
220
0
230
-1
0
LWPOLYLINE
5
126
100
AcDbEntity
8
INTERIOR_PROFILES
100
AcDbPolyline
90
4
70
1
43
0.0
10
-6.0313897198065991
20
31.609216056094187
10
-1.3329266158770459
20
29.899115339465901
42
-0.99999999999999989
10
-2.5299971175168383
20
26.610191166715239
10
-7.2284602214463689
20
28.320291883343529
42
-0.99999999999999989
0
CIRCLE
5
127
100
AcDbEntity
8
INTERIOR_PROFILES
100
AcDbCircle
10
96.971105421154661
20
-28.718494931106314
30
0
40
1.7500000000000104
210
0
220
0
230
-1
0
CIRCLE
5
128
100
AcDbEntity
8
INTERIOR_PROFILES
100
AcDbCircle
10
60.956941126293572
20
-58.937966933635693
30
0
40
1.7500000000000022
210
0
220
0
230
-1
0
LWPOLYLINE
5
129
100
AcDbEntity
8
INTERIOR_PROFILES
100
AcDbPolyline
90
4
70
1
43
0.0
10
-42.375171222996343
20
-55.441300022361816
10
-37.778904566825389
20
-59.298025683511625
10
-40.686807206885724
20
-62.763529097077225
10
-45.283073860061485
20
-58.906803432357925
0
LWPOLYLINE
5
130
100
AcDbEntity
8
INTERIOR_PROFILES
100
AcDbPolyline
90
4
70
1
43
0.0
10
11.70077594557962
20
3.0000000000007532
10
6.1715728752535792
20
3.0000000000007732
10
6.171572875253597
20
6.0000000000008384
10
11.700775945579656
20
6.0000000000008136
0
LWPOLYLINE
5
131
100
AcDbEntity
8
INTERIOR_PROFILES
100
AcDbPolyline
90
4
70
1
43
0.0
10
-19.041377690087344
20
-63.272011985519619
10
-17.113014859512397
20
-60.973878657434078
10
-12.877399574962292
20
-64.527981885267977
10
-14.805762405537237
20
-66.826115213353546
0
LWPOLYLINE
5
132
100
AcDbEntity
8
INTERIOR_PROFILES
100
AcDbPolyline
90
4
70
1
43
0.0
10
-78.989029316683727
20
-30.624148557749749
10
-83.585295969859516
20
-26.767422893030457
10
-80.677393357754198
20
-23.301919512780273
10
-76.081126701583244
20
-27.158645173930076
0
LWPOLYLINE
5
133
100
AcDbEntity
8
INTERIOR_PROFILES
100
AcDbPolyline
90
4
70
1
43
0.0
10
-16.736634716043717
20
15.000000000000815
10
-16.736634716043682
20
19.523893421165841
10
-10.736634716043687
20
19.523893421165905
10
-10.736634716043696
20
15.000000000000806
0
CIRCLE
5
134
100
AcDbEntity
8
INTERIOR_PROFILES
100
AcDbCircle
10
-25.271878801914902
20
36.469895956922997
30
0
40
1.5499999999999998
210
0
220
0
230
-1
0
LWPOLYLINE
5
135
100
AcDbEntity
8
INTERIOR_PROFILES
100
AcDbPolyline
90
4
70
1
43
0.0
10
-60.736634716043696
20
19.523893421165411
10
-60.736634716043724
20
15.000000000000815
10
-66.736634716043739
20
15.000000000000815
10
-66.73663471604371
20
19.523893421165329
0
CIRCLE
5
136
100
AcDbEntity
8
INTERIOR_PROFILES
100
AcDbCircle
10
-34.668805009774026
20
33.049694523666425
30
0
40
1.5500000000000027
210
0
220
0
230
-1
0
LINE
5
137
100
AcDbEntity
8
BEND
100
AcDbLine
10
-16.264629601903067
20
41.983520942203612
30
3.9816507148350829e-13
11
-129.32418457425368
21
41.983520942202546
31
2.9690493667844587e-13
0
LINE
5
138
100
AcDbEntity
8
BEND
100
AcDbLine
10
-145.96691100202929
20
-3.7419941162723891
30
3.1836982240682451e-13
11
-61.434324816110916
21
-74.673256067317212
31
4.1445219254034566e-13
0
LINE
5
139
100
AcDbEntity
8
BEND
100
AcDbLine
10
19.090470269664436
20
30.459653507952645
30
5.2156307608130743e-13
11
4.0553883370898181
21
35.931975801163169
31
4.8628547959045987e-13
0
LINE
5
140
100
AcDbEntity
8
BEND
100
AcDbLine
10
8.9361744104165641
20
15.000000000000068
30
-8.1319454268361516e-12
11
8.9361744104165286
21
-1.5543122344752192e-14
31
1.4940219767965055e-13
0
LINE
5
141
100
AcDbEntity
8
BEND
100
AcDbLine
10
-13.066844290584285
20
-60.452796857364994
30
8.0214306467388645e-07
11
-22.708658431743054
21
-71.94346350762298
31
1.8586537146967516e-07
0
LINE
5
142
100
AcDbEntity
8
BEND
100
AcDbLine
10
-33.39498475360336
20
-65.929332888767874
30
9.2932791295696937e-08
11
-87.493655821816404
21
-20.535157981459111
31
9.2934159141826242e-08
0
LINE
5
143
100
AcDbEntity
8
BEND
100
AcDbLine
10
-73.736634716043568
20
17.261946710582514
30
3.90977115587866e-13
11
-3.115835097777504
21
17.261946710582599
31
-3.6245769874334069e-12
0
LINE
5
144
100
AcDbEntity
8
BEND_EXTENT
100
AcDbLine
10
-73.73663471604344
20
19.523893421165148
30
4.2640467538496014e-13
11
-66.73663471604371
21
19.523893421165329
31
4.3145619014700682e-13
0
LINE
5
145
100
AcDbEntity
8
BEND_EXTENT
100
AcDbLine
10
-60.736634716043696
20
19.523893421165411
30
4.3578605994304705e-13
11
-16.736634716043682
21
19.523893421165841
31
4.6753843844734178e-13
0
LINE
5
146
100
AcDbEntity
8
BEND_EXTENT
100
AcDbLine
10
-10.736634716043687
20
19.523893421165905
30
4.7186830824338191e-13
11
-3.1158350977775662
21
19.523893421165834
31
4.7847804294947463e-13
0
LINE
5
147
100
AcDbEntity
8
BEND_EXTENT
100
AcDbLine
10
18.316838931515022
20
28.334118875404538
30
4.9283460124615099e-13
11
3.2817569989404038
21
33.806441168615038
31
4.8198461005601023e-13
0
LINE
5
148
100
AcDbEntity
8
BEND_EXTENT
100
AcDbLine
10
-16.264629601903344
20
39.72157423162043
30
4.6787905856189053e-13
11
-129.32418457425348
21
39.721574231619016
31
3.8406975380788617e-13
0
LINE
5
149
100
AcDbEntity
8
BEND_EXTENT
100
AcDbLine
10
-144.51295968269432
20
-2.0092424079978977
30
3.7310885071107201e-13
11
-59.980373496054739
21
-72.940504359648216
31
4.3633181204543816e-13
0
LINE
5
150
100
AcDbEntity
8
BEND_EXTENT
100
AcDbLine
10
-34.848936086607509
20
-67.662084617530908
30
4.5918623519513507e-13
11
-40.686807206885724
21
-62.763529097077225
31
4.5025491703433349e-13
0
LINE
5
151
100
AcDbEntity
8
BEND_EXTENT
100
AcDbLine
10
-45.283073860061485
20
-58.906803432357925
30
4.4693804434164476e-13
11
-78.989029316683727
21
-30.624148557749749
31
4.2261431126192733e-13
0
LINE
5
152
100
AcDbEntity
8
BEND_EXTENT
100
AcDbLine
10
-83.585295969859516
20
-26.767422893030457
30
4.1929743856923856e-13
11
-88.947607045789283
21
-22.26790957735329
31
4.1542775377513184e-13
0
LINE
5
153
100
AcDbEntity
8
BEND_EXTENT
100
AcDbLine
10
-86.039704440712001
20
-18.802406198303018
30
1.8586540315078903e-07
11
-80.677393357754198
21
-23.301919512780273
31
1.8586540702047384e-07
0
LINE
5
154
100
AcDbEntity
8
BEND_EXTENT
100
AcDbLine
10
-76.081126701583244
20
-27.158645173930076
30
1.8586541033734655e-07
11
-42.375171222996343
21
-55.441300022361816
31
1.8586542577929544e-07
0
LINE
5
155
100
AcDbEntity
8
BEND_EXTENT
100
AcDbLine
10
-37.778904566825389
20
-59.298025683511625
30
1.8586542909616812e-07
11
-31.941033330274038
21
-64.196581141042756
31
1.8586538890011754e-07
0
LINE
5
156
100
AcDbEntity
8
BEND_EXTENT
100
AcDbLine
10
-24.826466059403831
20
-70.166411909648446
30
1.8586542067966177e-07
11
-19.041377690087344
21
-63.272011985519619
31
5.5563201553432915e-07
0
LINE
5
157
100
AcDbEntity
8
BEND_EXTENT
100
AcDbLine
10
-17.113014859512397
20
-60.973878657434078
30
6.788875382707674e-07
11
-15.184651918245091
21
-58.675745259390425
31
8.0214320311575301e-07
0
LINE
5
158
100
AcDbEntity
8
BEND_EXTENT
100
AcDbLine
10
6.1715728752537924
20
2.2204460492503131e-15
30
-1.3309883896232142e-14
11
6.1715728752535792
21
3.0000000000007732
31
-1.7807849390994814e-12
0
LINE
5
159
100
AcDbEntity
8
BEND_EXTENT
100
AcDbLine
10
6.171572875253597
20
6.0000000000008384
30
-1.3189321608554163e-12
11
6.1715728752538102
21
15.000000000000009
31
4.3077932595383035e-13
0
LINE
5
160
100
AcDbEntity
8
BEND_EXTENT
100
AcDbLine
10
-3.1158350977777971
20
15.00000000000002
30
4.4184068313684427e-13
11
-10.736634716043696
21
15.000000000000806
31
-1.6629822591686972e-14
0
LINE
5
161
100
AcDbEntity
8
BEND_EXTENT
100
AcDbLine
10
-16.736634716043717
20
15.000000000000815
30
-2.095969238772714e-14
11
-60.736634716043724
21
15.000000000000815
31
-3.4948502498019347e-14
0
LINE
5
162
100
AcDbEntity
8
BEND_EXTENT
100
AcDbLine
10
-66.736634716043739
20
15.000000000000815
30
-5.7041940688062083e-14
11
-73.73663471604354
21
14.999999999999986
31
3.5535040180895002e-13
0
LINE
5
163
100
AcDbEntity
8
BEND_EXTENT
100
AcDbLine
10
11.700775945577879
20
15.000000000000052
30
9.0023045058965553e-13
11
11.700775945579656
21
6.0000000000008136
31
-7.7787165113126707e-13
0
LINE
5
164
100
AcDbEntity
8
BEND_EXTENT
100
AcDbLine
10
11.70077594557962
20
3.0000000000007532
30
-1.2233486397621116e-12
11
11.700775945577844
21
-3.9968028886505635e-14
31
4.3171633419783947e-13
0
LINE
5
165
100
AcDbEntity
8
BEND_EXTENT
100
AcDbLine
10
-10.949036630071269
20
-62.22984848290578
30
8.0214314844076613e-07
11
-12.877399574962292
21
-64.527981885267977
31
6.7888748026511155e-07
0
LINE
5
166
100
AcDbEntity
8
BEND_EXTENT
100
AcDbLine
10
-14.805762405537237
20
-66.826115213353546
30
5.5563195336533695e-07
11
-20.590850771230038
21
-73.720515133163815
31
1.8586538487846639e-07
0
LINE
5
167
100
AcDbEntity
8
BEND_EXTENT
100
AcDbLine
10
4.82901967523925
20
38.057510433711229
30
5.0974653696845512e-13
11
19.864101607813865
21
32.585188140500698
31
5.2059652815859587e-13
0
LINE
5
168
100
AcDbEntity
8
BEND_EXTENT
100
AcDbLine
10
-129.32418457425379
20
44.245467652785607
30
1.3760024234110117e-13
11
-16.264629601903327
21
44.245467652786758
31
2.8136159042486423e-13
0
LINE
5
169
100
AcDbEntity
8
BEND_EXTENT
100
AcDbLine
10
-62.888276136167363
20
-76.406007774986151
30
3.0988835998554579e-13
11
-147.4208623215313
21
-5.4747458244065683
31
2.3112227630734798e-13
0
ENDSEC
0
SECTION
2
OBJECTS
0
DICTIONARY
5
C
100
AcDbDictionary
3
ACAD_GROUP
350
D
3
ACAD_MLINESTYLE
350
17
0
DICTIONARY
5
D
100
AcDbDictionary
0
DICTIONARY
5
1A
330
C
100
AcDbDictionary
0
DICTIONARY
5
17
100
AcDbDictionary
0
ENDSEC
0
EOF
